<svg xmlns="http://www.w3.org/2000/svg" width="600" height="200" viewBox="0 0 600 200"><defs></defs><rect width="600" height="200" fill="#0A0C06"></rect><line x1="40" y1="0" x2="40" y2="200" stroke="#F5F6EE" stroke-width="1" opacity="0.05"></line><line x1="80" y1="0" x2="80" y2="200" stroke="#F5F6EE" stroke-width="1" opacity="0.05"></line><line x1="120" y1="0" x2="120" y2="200" stroke="#F5F6EE" stroke-width="1" opacity="0.05"></line><line x1="160" y1="0" x2="160" y2="200" stroke="#F5F6EE" stroke-width="1" opacity="0.05"></line><line x1="200" y1="0" x2="200" y2="200" stroke="#F5F6EE" stroke-width="1" opacity="0.05"></line><line x1="240" y1="0" x2="240" y2="200" stroke="#F5F6EE" stroke-width="1" opacity="0.05"></line><line x1="280" y1="0" x2="280" y2="200" stroke="#F5F6EE" stroke-width="1" opacity="0.05"></line><line x1="320" y1="0" x2="320" y2="200" stroke="#F5F6EE" stroke-width="1" opacity="0.05"></line><line x1="360" y1="0" x2="360" y2="200" stroke="#F5F6EE" stroke-width="1" opacity="0.05"></line><line x1="400" y1="0" x2="400" y2="200" stroke="#F5F6EE" stroke-width="1" opacity="0.05"></line><line x1="440" y1="0" x2="440" y2="200" stroke="#F5F6EE" stroke-width="1" opacity="0.05"></line><line x1="480" y1="0" x2="480" y2="200" stroke="#F5F6EE" stroke-width="1" opacity="0.05"></line><line x1="520" y1="0" x2="520" y2="200" stroke="#F5F6EE" stroke-width="1" opacity="0.05"></line><line x1="560" y1="0" x2="560" y2="200" stroke="#F5F6EE" stroke-width="1" opacity="0.05"></line><line x1="0" y1="40" x2="600" y2="40" stroke="#F5F6EE" stroke-width="1" opacity="0.05"></line><line x1="0" y1="80" x2="600" y2="80" stroke="#F5F6EE" stroke-width="1" opacity="0.05"></line><line x1="0" y1="120" x2="600" y2="120" stroke="#F5F6EE" stroke-width="1" opacity="0.05"></line><line x1="0" y1="160" x2="600" y2="160" stroke="#F5F6EE" stroke-width="1" opacity="0.05"></line><circle cx="525.2" cy="137.1" r="3.33" fill="#CFE524" opacity="0.722"></circle><circle cx="412.9" cy="181.3" r="1.87" fill="#F5F6EE" opacity="0.257"></circle><circle cx="578.6" cy="48.9" r="2.61" fill="#F5F6EE" opacity="0.285"></circle><circle cx="412.4" cy="106.4" r="3.32" fill="#F5F6EE" opacity="0.400"></circle><circle cx="541.2" cy="191.7" r="1.88" fill="#F5F6EE" opacity="0.245"></circle><circle cx="512.9" cy="33.5" r="2.49" fill="#F5F6EE" opacity="0.416"></circle><circle cx="578.1" cy="22.4" r="1.72" fill="#F5F6EE" opacity="0.261"></circle><circle cx="464.7" cy="19.4" r="2.85" fill="#F5F6EE" opacity="0.363"></circle><circle cx="564.5" cy="128.4" r="3.04" fill="#F5F6EE" opacity="0.303"></circle><circle cx="422.2" cy="98.5" r="3.02" fill="#F5F6EE" opacity="0.377"></circle><circle cx="530.0" cy="148.4" r="3.36" fill="#F5F6EE" opacity="0.386"></circle><circle cx="296.0" cy="124.2" r="2.36" fill="#F5F6EE" opacity="0.236"></circle><circle cx="453.8" cy="17.6" r="1.99" fill="#F5F6EE" opacity="0.353"></circle><circle cx="414.4" cy="183.8" r="2.90" fill="#F5F6EE" opacity="0.254"></circle><circle cx="309.6" cy="83.5" r="3.07" fill="#F5F6EE" opacity="0.261"></circle><circle cx="357.8" cy="127.4" r="2.82" fill="#F5F6EE" opacity="0.233"></circle><circle cx="363.8" cy="127.0" r="1.89" fill="#F5F6EE" opacity="0.245"></circle><circle cx="447.8" cy="59.1" r="3.32" fill="#F5F6EE" opacity="0.416"></circle><circle cx="465.1" cy="133.2" r="2.62" fill="#F5F6EE" opacity="0.394"></circle><circle cx="320.7" cy="18.4" r="2.54" fill="#CFE524" opacity="0.534"></circle><circle cx="287.3" cy="109.5" r="2.14" fill="#F5F6EE" opacity="0.228"></circle><circle cx="428.7" cy="185.4" r="1.89" fill="#F5F6EE" opacity="0.341"></circle><circle cx="408.7" cy="159.0" r="1.85" fill="#F5F6EE" opacity="0.287"></circle><circle cx="408.0" cy="179.8" r="2.03" fill="#F5F6EE" opacity="0.332"></circle><circle cx="419.8" cy="149.0" r="2.90" fill="#F5F6EE" opacity="0.376"></circle><circle cx="305.7" cy="110.7" r="3.09" fill="#F5F6EE" opacity="0.253"></circle><circle cx="440.3" cy="117.8" r="2.91" fill="#F5F6EE" opacity="0.393"></circle><circle cx="294.0" cy="87.9" r="2.57" fill="#F5F6EE" opacity="0.117"></circle><circle cx="398.2" cy="75.3" r="2.22" fill="#F5F6EE" opacity="0.385"></circle><circle cx="442.2" cy="162.8" r="2.67" fill="#F5F6EE" opacity="0.320"></circle><circle cx="499.6" cy="31.7" r="3.23" fill="#F5F6EE" opacity="0.422"></circle><circle cx="292.5" cy="74.0" r="1.96" fill="#F5F6EE" opacity="0.113"></circle><circle cx="362.3" cy="32.7" r="2.13" fill="#F5F6EE" opacity="0.320"></circle><circle cx="297.5" cy="24.2" r="1.62" fill="#F5F6EE" opacity="0.231"></circle><circle cx="522.4" cy="185.4" r="2.37" fill="#F5F6EE" opacity="0.346"></circle><circle cx="585.5" cy="86.6" r="2.05" fill="#F5F6EE" opacity="0.283"></circle><circle cx="419.3" cy="92.6" r="2.89" fill="#F5F6EE" opacity="0.414"></circle><circle cx="489.6" cy="98.6" r="2.72" fill="#CFE524" opacity="0.803"></circle><circle cx="461.7" cy="53.5" r="2.59" fill="#F5F6EE" opacity="0.450"></circle><circle cx="559.4" cy="127.5" r="1.90" fill="#F5F6EE" opacity="0.314"></circle><circle cx="511.2" cy="63.7" r="3.26" fill="#F5F6EE" opacity="0.423"></circle><circle cx="455.5" cy="82.3" r="3.52" fill="#F5F6EE" opacity="0.450"></circle><circle cx="513.2" cy="117.1" r="2.82" fill="#F5F6EE" opacity="0.403"></circle><circle cx="559.1" cy="163.4" r="2.40" fill="#F5F6EE" opacity="0.343"></circle><circle cx="528.0" cy="142.9" r="3.18" fill="#F5F6EE" opacity="0.344"></circle><circle cx="436.1" cy="56.2" r="2.22" fill="#F5F6EE" opacity="0.427"></circle><circle cx="522.6" cy="50.2" r="3.47" fill="#CFE524" opacity="0.703"></circle><circle cx="377.7" cy="73.8" r="3.22" fill="#CFE524" opacity="0.573"></circle><circle cx="319.2" cy="177.2" r="2.54" fill="#F5F6EE" opacity="0.240"></circle><circle cx="309.4" cy="16.4" r="1.38" fill="#F5F6EE" opacity="0.122"></circle><circle cx="287.2" cy="52.1" r="1.69" fill="#F5F6EE" opacity="0.226"></circle><circle cx="438.4" cy="38.9" r="3.07" fill="#F5F6EE" opacity="0.374"></circle><circle cx="553.7" cy="134.6" r="3.33" fill="#F5F6EE" opacity="0.375"></circle><circle cx="308.3" cy="85.2" r="2.80" fill="#F5F6EE" opacity="0.146"></circle><circle cx="555.9" cy="47.9" r="3.21" fill="#F5F6EE" opacity="0.382"></circle><circle cx="564.9" cy="142.1" r="2.06" fill="#F5F6EE" opacity="0.356"></circle><circle cx="575.8" cy="30.2" r="2.33" fill="#F5F6EE" opacity="0.346"></circle><circle cx="390.1" cy="188.8" r="2.22" fill="#CFE524" opacity="0.478"></circle><circle cx="375.9" cy="91.1" r="2.85" fill="#F5F6EE" opacity="0.285"></circle><circle cx="539.9" cy="105.9" r="3.49" fill="#F5F6EE" opacity="0.411"></circle><circle cx="287.5" cy="86.5" r="2.37" fill="#F5F6EE" opacity="0.104"></circle><circle cx="401.4" cy="97.0" r="2.83" fill="#F5F6EE" opacity="0.389"></circle><circle cx="543.3" cy="43.6" r="1.97" fill="#F5F6EE" opacity="0.345"></circle><circle cx="551.9" cy="45.0" r="3.18" fill="#F5F6EE" opacity="0.385"></circle><circle cx="301.5" cy="18.6" r="2.50" fill="#F5F6EE" opacity="0.109"></circle><circle cx="354.5" cy="82.8" r="2.46" fill="#F5F6EE" opacity="0.242"></circle><circle cx="435.8" cy="85.2" r="3.24" fill="#F5F6EE" opacity="0.438"></circle><circle cx="515.9" cy="120.2" r="2.92" fill="#F5F6EE" opacity="0.395"></circle><circle cx="492.0" cy="155.3" r="3.17" fill="#F5F6EE" opacity="0.351"></circle><circle cx="560.1" cy="152.2" r="2.99" fill="#F5F6EE" opacity="0.353"></circle><circle cx="511.8" cy="47.6" r="2.90" fill="#F5F6EE" opacity="0.400"></circle><circle cx="487.9" cy="184.3" r="3.10" fill="#F5F6EE" opacity="0.293"></circle><circle cx="524.4" cy="61.8" r="3.07" fill="#F5F6EE" opacity="0.398"></circle><circle cx="548.5" cy="9.5" r="1.94" fill="#F5F6EE" opacity="0.292"></circle><circle cx="498.5" cy="14.9" r="3.23" fill="#F5F6EE" opacity="0.400"></circle><circle cx="518.5" cy="120.7" r="2.73" fill="#CFE524" opacity="0.752"></circle><circle cx="441.4" cy="139.9" r="2.41" fill="#F5F6EE" opacity="0.360"></circle><circle cx="438.8" cy="180.4" r="3.03" fill="#F5F6EE" opacity="0.353"></circle><circle cx="342.0" cy="68.7" r="2.53" fill="#F5F6EE" opacity="0.306"></circle><circle cx="396.7" cy="63.7" r="1.93" fill="#CFE524" opacity="0.619"></circle><circle cx="460.7" cy="71.2" r="2.85" fill="#F5F6EE" opacity="0.468"></circle><circle cx="334.4" cy="141.5" r="2.84" fill="#F5F6EE" opacity="0.281"></circle><circle cx="320.8" cy="182.4" r="2.03" fill="#F5F6EE" opacity="0.115"></circle><circle cx="497.6" cy="32.1" r="2.33" fill="#F5F6EE" opacity="0.423"></circle><circle cx="405.3" cy="20.6" r="1.97" fill="#F5F6EE" opacity="0.298"></circle><circle cx="555.3" cy="123.3" r="2.79" fill="#F5F6EE" opacity="0.325"></circle><circle cx="528.4" cy="154.8" r="3.28" fill="#F5F6EE" opacity="0.380"></circle><circle cx="476.4" cy="43.8" r="2.61" fill="#CFE524" opacity="0.776"></circle><circle cx="566.5" cy="71.4" r="3.38" fill="#F5F6EE" opacity="0.378"></circle><circle cx="485.6" cy="191.0" r="1.93" fill="#F5F6EE" opacity="0.279"></circle><circle cx="395.4" cy="145.8" r="1.84" fill="#F5F6EE" opacity="0.284"></circle><circle cx="377.7" cy="30.7" r="2.94" fill="#F5F6EE" opacity="0.262"></circle><circle cx="325.6" cy="189.6" r="1.74" fill="#F5F6EE" opacity="0.238"></circle><circle cx="578.7" cy="166.0" r="2.05" fill="#F5F6EE" opacity="0.320"></circle><circle cx="356.9" cy="84.1" r="2.97" fill="#F5F6EE" opacity="0.247"></circle><circle cx="520.5" cy="179.8" r="3.05" fill="#F5F6EE" opacity="0.286"></circle><circle cx="283.5" cy="102.8" r="2.01" fill="#F5F6EE" opacity="0.094"></circle><circle cx="391.9" cy="49.0" r="2.44" fill="#F5F6EE" opacity="0.367"></circle><circle cx="370.8" cy="97.4" r="3.12" fill="#F5F6EE" opacity="0.346"></circle><circle cx="447.1" cy="35.8" r="2.24" fill="#F5F6EE" opacity="0.418"></circle><circle cx="277.5" cy="73.2" r="1.80" fill="#F5F6EE" opacity="0.216"></circle><circle cx="556.3" cy="113.1" r="3.28" fill="#F5F6EE" opacity="0.386"></circle><circle cx="586.8" cy="127.5" r="1.99" fill="#CFE524" opacity="0.539"></circle><circle cx="455.6" cy="30.2" r="3.40" fill="#F5F6EE" opacity="0.378"></circle><circle cx="315.6" cy="163.6" r="2.37" fill="#F5F6EE" opacity="0.244"></circle><circle cx="545.8" cy="168.7" r="3.09" fill="#CFE524" opacity="0.561"></circle><circle cx="305.4" cy="90.0" r="2.49" fill="#F5F6EE" opacity="0.255"></circle><g transform="translate(44,23.39) scale(0.5641025641025641)"><path d="M32.5 20 L67.5 41 L32.5 62 L32.5 80 L64.5 80" fill="none" stroke="#CFE524" stroke-width="14" stroke-linejoin="round" stroke-linecap="round"></path></g><text x="89.9" y="66" font-family="Bricolage Grotesque" font-weight="700" font-size="40" letter-spacing="-1.2" fill="#F5F6EE">Solva</text><text x="44" y="122" font-family="Bricolage Grotesque" font-weight="600" font-size="26" letter-spacing="-0.5" fill="#F5F6EE">Prove solvency. Privately.</text><rect x="44" y="144" width="339.73431396484375" height="30" rx="15" fill="none" stroke="#CFE524" stroke-opacity="0.5" stroke-width="1.2"></rect><circle cx="61.5" cy="159" r="3.5" fill="#CFE524"></circle><text x="74" y="163.55" font-family="IBM Plex Mono" font-weight="500" font-size="13" letter-spacing="0.4" fill="#CFE524">reserves ≥ liabilities · joinsolva.xyz</text></svg>